<?xml version="1.0" encoding="utf-8"?>
<!-- Generator: Adobe Illustrator 24.1.1, SVG Export Plug-In . SVG Version: 6.00 Build 0)  -->
<svg version="1.1" id="图层_1" xmlns="http://www.w3.org/2000/svg" xmlns:xlink="http://www.w3.org/1999/xlink" x="0px" y="0px"
	 viewBox="0 0 85.04 184.25" style="enable-background:new 0 0 85.04 184.25;" xml:space="preserve">
<style type="text/css">
	.st0{fill-rule:evenodd;clip-rule:evenodd;fill:#FFFFFF;}
	.st1{fill-rule:evenodd;clip-rule:evenodd;fill:none;stroke:#000000;stroke-width:0.2835;stroke-miterlimit:22.9256;}
	.st2{fill:none;stroke:#000000;stroke-width:0.2835;stroke-miterlimit:22.9256;}
</style>
<path class="st0" d="M85.04,34.89v30.3v113.39c0,3.12-2.55,5.67-5.67,5.67H25.51h-8.5H5.67c-3.12,0-5.67-2.55-5.67-5.67V65.2v-30.3
	V5.67C0,2.55,2.55,0,5.67,0h31.18c2.52,0,4.67,1.66,5.4,3.94c0.04,0.12,0.14,0.2,0.27,0.2c0.13,0,0.23-0.08,0.27-0.2
	C43.52,1.66,45.67,0,48.19,0h31.18c3.12,0,5.67,2.55,5.67,5.67V34.89z"/>
<path class="st0" d="M36.85,70.87H5.67C2.54,70.87,0,68.33,0,65.2V5.67C0,2.54,2.54,0,5.67,0h31.18c3.13,0,5.67,2.54,5.67,5.67V65.2
	C42.52,68.33,39.98,70.87,36.85,70.87z"/>
<path class="st0" d="M79.37,70.87H48.19c-3.13,0-5.67-2.54-5.67-5.67V5.67c0-3.13,2.54-5.67,5.67-5.67h31.18
	c3.13,0,5.67,2.54,5.67,5.67V65.2C85.04,68.33,82.5,70.87,79.37,70.87z"/>
<path class="st1" d="M85.04,34.89v30.3v113.39c0,3.12-2.55,5.67-5.67,5.67H25.51h-8.5H5.67c-3.12,0-5.67-2.55-5.67-5.67V65.2v-30.3
	V5.67C0,2.55,2.55,0,5.67,0h31.18c2.52,0,4.67,1.66,5.4,3.94c0.04,0.12,0.14,0.2,0.27,0.2c0.13,0,0.23-0.08,0.27-0.2
	C43.52,1.66,45.67,0,48.19,0h31.18c3.12,0,5.67,2.55,5.67,5.67V34.89z"/>
<path class="st1" d="M48.19,0h31.18c3.12,0,5.67,2.55,5.67,5.67V65.2c0,3.12-2.55,5.67-5.67,5.67H48.19c-2.52,0-4.67-1.66-5.4-3.94
	c-0.04-0.12-0.14-0.2-0.27-0.2c-0.13,0-0.23,0.08-0.27,0.2c-0.73,2.28-2.88,3.94-5.4,3.94h-8.5c-1.56,0-2.83,1.27-2.83,2.83v4.25
	c0,1.56,1.27,2.83,2.83,2.83h4.25c0.78,0,1.42,0.64,1.42,1.42v82.2c0,0.78-0.64,1.42-1.42,1.42h-4.25c-1.56,0-2.83,1.27-2.83,2.83
	v15.59h-8.5V73.7c0-1.56-1.27-2.83-2.83-2.83h-8.5C2.55,70.87,0,68.32,0,65.2V5.67C0,2.55,2.55,0,5.67,0h31.18
	c2.52,0,4.67,1.66,5.4,3.94c0.04,0.12,0.14,0.2,0.27,0.2c0.13,0,0.23-0.08,0.27-0.2C43.52,1.66,45.67,0,48.19,0z"/>
<g>
	<line class="st2" x1="25.51" y1="164.41" x2="25.51" y2="159.45"/>
	<line class="st2" x1="25.51" y1="158.03" x2="25.51" y2="152.36"/>
	<line class="st2" x1="25.51" y1="150.95" x2="25.51" y2="145.28"/>
	<line class="st2" x1="25.51" y1="143.86" x2="25.51" y2="138.19"/>
	<line class="st2" x1="25.51" y1="136.77" x2="25.51" y2="131.1"/>
	<line class="st2" x1="25.51" y1="129.69" x2="25.51" y2="124.02"/>
	<line class="st2" x1="25.51" y1="122.6" x2="25.51" y2="116.93"/>
	<line class="st2" x1="25.51" y1="115.51" x2="25.51" y2="109.84"/>
	<line class="st2" x1="25.51" y1="108.42" x2="25.51" y2="102.76"/>
	<line class="st2" x1="25.51" y1="101.34" x2="25.51" y2="95.67"/>
	<line class="st2" x1="25.51" y1="94.25" x2="25.51" y2="88.58"/>
	<line class="st2" x1="25.51" y1="87.16" x2="25.51" y2="82.2"/>
</g>
<line class="st2" x1="42.52" y1="65.31" x2="42.52" y2="60.95"/>
<line class="st2" x1="42.52" y1="59.53" x2="42.52" y2="53.86"/>
<line class="st2" x1="42.52" y1="52.44" x2="42.52" y2="46.77"/>
<line class="st2" x1="42.52" y1="45.35" x2="42.52" y2="39.69"/>
<line class="st2" x1="42.52" y1="38.27" x2="42.52" y2="32.6"/>
<line class="st2" x1="42.52" y1="31.18" x2="42.52" y2="25.51"/>
<line class="st2" x1="42.52" y1="24.09" x2="42.52" y2="18.42"/>
<line class="st2" x1="42.52" y1="17.01" x2="42.52" y2="11.34"/>
<line class="st2" x1="42.52" y1="9.92" x2="42.52" y2="5.56"/>
</svg>
